<svg width="27" height="25" viewBox="0 0 27 25" fill="none" xmlns="http://www.w3.org/2000/svg">
<path fill-rule="evenodd" clip-rule="evenodd" d="M24.6708 24.1103C24.6708 24.3322 24.4907 24.5146 24.2666 24.5146H2.62129C2.39936 24.5146 2.21699 24.3344 2.21699 24.1103V11.8364C1.76435 12.01 1.34468 12.0122 0.993114 11.8957C0.718455 11.8034 0.487743 11.6386 0.318553 11.4233C0.149364 11.2102 0.0416977 10.9487 0.00873869 10.6631C-0.0396012 10.217 0.094432 9.71164 0.472362 9.23922C0.492137 9.21505 0.51411 9.19308 0.53828 9.17331L13.1945 0.588589C13.3374 0.456753 13.5571 0.443569 13.7153 0.566616L26.3935 9.13375C26.4111 9.14694 26.4265 9.16232 26.4418 9.1777C26.9516 9.72702 27.0791 10.3357 26.956 10.852C26.8945 11.1047 26.7736 11.3354 26.6066 11.5222C26.4396 11.7111 26.2265 11.8562 25.9826 11.9441C25.5959 12.0847 25.1389 12.0781 24.673 11.8584C24.6708 15.2861 24.6708 20.6848 24.6708 24.1103ZM10.1228 15.9123C10.6347 15.9123 11.0478 16.3276 11.0478 16.8374C11.0478 17.3493 10.6325 17.7624 10.1228 17.7624C9.61299 17.7624 9.1977 17.3493 9.1977 16.8374C9.1977 16.3276 9.61299 15.9123 10.1228 15.9123ZM12.7771 14.5698H13.0495V14.6313L12.8737 14.8137H13.0561V14.8796H12.7617V14.8137L12.9353 14.6335H12.7792L12.7771 14.5698ZM10.9204 15.1455H11.5114V15.2817L11.1313 15.6794H11.5246V15.8244H10.8808V15.6838L11.2587 15.2905H10.9204V15.1455ZM11.9838 14.9082H12.4057V15.0048L12.1354 15.2883H12.4167V15.3916H11.9575V15.2927L12.2255 15.0136H11.9838V14.9082ZM7.41572 15.9453H8.59126V19.4104H19.872V21.3132H19.7512V22.2668H18.5756V21.3132H8.59126V22.2668H7.41572V21.3132H7.12788V19.4126H7.41572V15.9453ZM11.5026 16.2111H18.591C19.2062 16.2111 19.7116 16.7143 19.7116 17.3318V19.0478C16.4487 19.0478 12.2958 19.0478 9.03291 19.0478V18.2722C9.03291 18.1513 9.13179 18.0525 9.25264 18.0525H11.5004V16.2111H11.5026ZM9.96016 8.47018H17.0375V13.2361H9.96016V8.47018ZM12.364 9.76437C12.5683 9.76437 12.7353 9.93136 12.7353 10.1357C12.7353 10.3401 12.5683 10.507 12.364 10.507C12.1596 10.507 11.9926 10.3401 11.9926 10.1357C11.9948 9.92916 12.1596 9.76437 12.364 9.76437ZM13.9284 11.3574L14.7634 10.0742L15.5522 12.0693H11.685V11.821L11.9948 11.8056L12.3046 11.0476L12.5507 11.5903H13.0144L13.4165 10.5532L13.9284 11.3574ZM10.3864 8.96017H16.6157V12.7461H10.3864V8.96017ZM23.6557 23.4973V11.386C23.6557 11.3596 23.6579 11.3332 23.6623 11.309L13.5395 4.56564L3.22114 11.3112C3.22993 11.3442 3.23432 11.3794 3.23432 11.4145V23.4973C10.0415 23.4973 16.8464 23.4973 23.6557 23.4973Z" fill="#D4C17F"/>
</svg>
