<svg width="28" height="28" viewBox="0 0 28 28" fill="none" xmlns="http://www.w3.org/2000/svg">
<path d="M15.1666 9.33329C15.1666 8.68897 14.6443 8.16663 13.9999 8.16663C13.3556 8.16663 12.8333 8.68897 12.8333 9.33329C12.8333 9.97762 13.3556 10.5 13.9999 10.5C14.6443 10.5 15.1666 9.97762 15.1666 9.33329Z" fill="#D41F1F"/>
<path d="M14 20.7084C14.4832 20.7084 14.875 20.3166 14.875 19.8334V12.8334C14.875 12.3501 14.4832 11.9584 14 11.9584C13.5168 11.9584 13.125 12.3501 13.125 12.8334V19.8334C13.125 20.3166 13.5168 20.7084 14 20.7084Z" fill="#D41F1F"/>
<path fill-rule="evenodd" clip-rule="evenodd" d="M14.0669 1.45837H13.933C11.2399 1.45836 9.12931 1.45835 7.48258 1.67975C5.79705 1.90636 4.46703 2.37926 3.42308 3.4232C2.37914 4.46715 1.90624 5.79717 1.67963 7.4827C1.45823 9.12943 1.45824 11.24 1.45825 13.9331V14.067C1.45824 16.7601 1.45823 18.8706 1.67963 20.5174C1.90624 22.2029 2.37914 23.533 3.42308 24.5769C4.46703 25.6209 5.79705 26.0937 7.48258 26.3204C9.12931 26.5417 11.2399 26.5417 13.933 26.5417H14.0669C16.76 26.5417 18.8705 26.5417 20.5173 26.3204C22.2028 26.0937 23.5329 25.6209 24.5768 24.5769C25.6207 23.533 26.0936 22.2029 26.3203 20.5174C26.5416 18.8706 26.5416 16.7601 26.5416 14.067V13.9331C26.5416 11.24 26.5416 9.12943 26.3203 7.4827C26.0936 5.79717 25.6207 4.46715 24.5768 3.4232C23.5329 2.37926 22.2028 1.90636 20.5173 1.67975C18.8705 1.45835 16.76 1.45836 14.0669 1.45837ZM4.66052 4.66064C5.32511 3.99604 6.22428 3.61467 7.71576 3.41414C9.23241 3.21023 11.2253 3.20837 13.9999 3.20837C16.7745 3.20837 18.7674 3.21023 20.2841 3.41414C21.7755 3.61467 22.6747 3.99604 23.3393 4.66064C24.004 5.32523 24.3854 6.22441 24.5858 7.71588C24.7897 9.23253 24.7916 11.2254 24.7916 14C24.7916 16.7746 24.7897 18.7675 24.5858 20.2842C24.3854 21.7756 24.004 22.6748 23.3393 23.3394C22.6747 24.0041 21.7755 24.3855 20.2841 24.5859C18.7674 24.7898 16.7745 24.7917 13.9999 24.7917C11.2253 24.7917 9.23241 24.7898 7.71576 24.5859C6.22428 24.3855 5.32511 24.0041 4.66052 23.3394C3.99592 22.6748 3.61454 21.7756 3.41402 20.2842C3.21011 18.7675 3.20825 16.7746 3.20825 14C3.20825 11.2254 3.21011 9.23253 3.41402 7.71588C3.61454 6.22441 3.99592 5.32523 4.66052 4.66064Z" fill="url(#paint0_linear_7_505)"/>
<defs>
<linearGradient id="paint0_linear_7_505" x1="2.54537" y1="1.69701" x2="25.0302" y2="26.3031" gradientUnits="userSpaceOnUse">
<stop offset="0.02" stop-color="#1C274C"/>
<stop offset="0.485" stop-color="#D41F1F"/>
<stop offset="0.885" stop-color="#F8D985"/>
</linearGradient>
</defs>
</svg>
