<svg width="31" height="29" viewBox="0 0 31 29" fill="none" xmlns="http://www.w3.org/2000/svg">
<path d="M6.47347 5.27922C6.37256 5.38013 6.23885 5.43058 6.10767 5.43058C5.97396 5.43058 5.84277 5.38013 5.74186 5.27922C5.64095 5.17831 5.59049 5.0446 5.59049 4.91341C5.59049 4.77971 5.64095 4.64852 5.74186 4.54761C5.92602 4.36345 5.979 4.19694 5.95882 4.03801C5.93864 3.86393 5.84025 3.67725 5.73177 3.47795C5.54508 3.12728 5.34326 2.75391 5.28019 2.29981C5.2146 1.84066 5.29028 1.3134 5.66113 0.672608L5.66366 0.662517C5.73429 0.543946 5.84782 0.463217 5.97144 0.427898C6.09757 0.392579 6.23885 0.407716 6.36247 0.478354C6.48608 0.548992 6.56934 0.66504 6.60465 0.791179C6.63997 0.917318 6.62484 1.05859 6.5542 1.18221C6.32715 1.57829 6.28426 1.90625 6.32715 2.19385C6.37256 2.48397 6.51131 2.74382 6.6425 2.986C6.83675 3.34676 7.01587 3.68229 7.03857 4.05314C7.0638 4.43408 6.92505 4.82764 6.47347 5.27922ZM3.55461 11.1977H27.3975C27.4933 11.1977 27.5867 11.2179 27.6724 11.2532C27.7557 11.2885 27.8289 11.3364 27.8944 11.397C27.8995 11.3995 27.9045 11.4045 27.9096 11.4096C28.0408 11.5408 28.1215 11.7199 28.1215 11.9192V13.5262H30.4828C30.6266 13.5262 30.7553 13.5842 30.8486 13.6776C30.942 13.7709 31 13.9021 31 14.0434C31 14.1872 30.942 14.3158 30.8486 14.4092L30.8411 14.4167C30.7477 14.505 30.6216 14.5605 30.4828 14.5605H28.1215V25.1815C28.1215 25.6406 28.0282 26.0796 27.8617 26.4807C27.6876 26.897 27.4353 27.2729 27.1225 27.5857C26.8097 27.8985 26.4338 28.1533 26.0175 28.3249C25.6164 28.4914 25.1774 28.5847 24.7183 28.5847H6.23885C5.7797 28.5847 5.34074 28.4914 4.93962 28.3249C4.52336 28.1508 4.14746 27.8985 3.83464 27.5832C3.52181 27.2703 3.26701 26.8945 3.09294 26.4782C2.92643 26.0771 2.83309 25.6381 2.83309 25.179V14.5656H0.519694C0.375895 14.5656 0.247233 14.5076 0.15389 14.4142C0.0580241 14.3184 0 14.1897 0 14.0459C0 13.9021 0.0580241 13.7734 0.151367 13.6801C0.24471 13.5868 0.375895 13.5287 0.517171 13.5287H2.83309V11.9217C2.83309 11.8258 2.85327 11.7325 2.88859 11.6467C2.92643 11.5584 2.97941 11.4777 3.045 11.4121C3.17619 11.2809 3.35783 11.1977 3.55461 11.1977ZM27.0821 12.2371H3.87248V25.184C3.87248 25.5044 3.93555 25.8071 4.05159 26.0872C4.17269 26.3773 4.34928 26.6371 4.56877 26.8566C4.78825 27.0761 5.0481 27.2527 5.33822 27.3738C5.61572 27.4898 5.92098 27.5529 6.24137 27.5529H24.7208C25.0387 27.5529 25.3439 27.4898 25.6214 27.3738C25.909 27.2527 26.1714 27.0761 26.3909 26.8591C26.6103 26.6397 26.7869 26.3798 26.9055 26.0897C27.0216 25.8122 27.0846 25.5069 27.0846 25.189V12.2371H27.0821ZM5.06071 13.9954C5.06071 13.8516 5.11873 13.723 5.21208 13.6296C5.30542 13.5363 5.4366 13.4783 5.57788 13.4783C5.72168 13.4783 5.85034 13.5363 5.94368 13.6296C6.03703 13.723 6.09505 13.8542 6.09505 13.9954V20.8297C6.09505 20.9735 6.03703 21.1021 5.94368 21.1955C5.85034 21.2888 5.71916 21.3468 5.57788 21.3468C5.43408 21.3468 5.30542 21.2888 5.21208 21.1955L5.20451 21.1879C5.11621 21.0946 5.06071 20.9684 5.06071 20.8297V13.9954ZM10.1668 6.82821C9.27376 6.95687 8.47152 7.12085 7.76009 7.31511C7.04614 7.51188 6.41797 7.74146 5.87809 8.00383C5.49967 8.18799 5.16414 8.38729 4.87402 8.60173C4.66968 8.75057 4.48804 8.90951 4.32658 9.07349H26.6356C26.4867 8.91708 26.3152 8.76823 26.1235 8.62695C25.8434 8.42261 25.518 8.2334 25.1497 8.06185C24.6249 7.81462 24.0144 7.6027 23.3307 7.41602C22.642 7.22933 21.8801 7.07544 21.0577 6.94678C20.6843 6.88875 20.3059 6.83578 19.925 6.78784H19.9199C19.544 6.73991 19.1656 6.69955 18.7821 6.6617C18.4062 6.62638 18.0253 6.59359 17.6368 6.56836C17.2533 6.54313 16.8724 6.52295 16.494 6.50781C16.3502 6.50277 16.224 6.4397 16.1332 6.34383C16.0424 6.24797 15.9894 6.11678 15.9945 5.97298V5.97046C15.997 5.88721 16.0197 5.809 16.0575 5.74089C16.0954 5.67025 16.1509 5.61222 16.2165 5.56429C16.2972 5.50374 16.3729 5.43563 16.4385 5.35742C16.5041 5.28174 16.5596 5.19596 16.605 5.10767C16.6504 5.01937 16.6857 4.92603 16.7084 4.82259C16.7311 4.7242 16.7437 4.62329 16.7437 4.51734C16.7437 4.34074 16.7084 4.17424 16.6453 4.02287C16.5798 3.86646 16.4839 3.72266 16.3653 3.60409C16.2467 3.48552 16.1029 3.38713 15.9465 3.32406C15.7952 3.26099 15.6287 3.22567 15.4521 3.22567C15.2755 3.22567 15.109 3.26099 14.9576 3.32406C14.7987 3.38965 14.6574 3.48552 14.5388 3.60661C14.4202 3.72518 14.3219 3.86898 14.2588 4.02539C14.1957 4.17676 14.1604 4.34326 14.1604 4.51986C14.1604 4.62329 14.173 4.7242 14.1932 4.82007C14.2159 4.91846 14.2512 5.01432 14.2941 5.1001C14.3395 5.1884 14.395 5.27417 14.4581 5.34985C14.5237 5.42806 14.5968 5.4987 14.6776 5.55672C14.7911 5.6425 14.8617 5.76611 14.8794 5.8973C14.8971 6.02848 14.8668 6.16724 14.781 6.28076C14.7305 6.34636 14.67 6.39681 14.6019 6.43213C14.5363 6.46493 14.4631 6.48511 14.39 6.48763H14.3748H14.3647C14.0191 6.4952 13.6659 6.50781 13.3102 6.52547C12.9596 6.54313 12.6038 6.56584 12.238 6.59611C11.8848 6.62386 11.5342 6.65666 11.1911 6.69702C10.8455 6.73486 10.5049 6.77775 10.1668 6.82821ZM5.42651 7.07039C6.01685 6.78532 6.69547 6.53556 7.46492 6.32365C8.22933 6.11174 9.08203 5.93766 10.0205 5.80143C10.3712 5.75098 10.7244 5.70557 11.0801 5.6652C11.4408 5.62484 11.7965 5.58952 12.1548 5.56177C12.3743 5.54411 12.6038 5.52897 12.8385 5.51384C12.9999 5.50374 13.1664 5.49618 13.3329 5.48861C13.2699 5.34985 13.2194 5.20353 13.1841 5.05469C13.1437 4.88314 13.121 4.70402 13.121 4.51986C13.121 4.20451 13.1841 3.9043 13.2976 3.62931C13.4162 3.34424 13.5903 3.08691 13.8047 2.87248C14.0191 2.65804 14.2764 2.48397 14.5615 2.36792C14.8365 2.2544 15.1367 2.19133 15.4521 2.19133C15.7674 2.19133 16.0676 2.2544 16.3426 2.36792C16.6277 2.48649 16.885 2.66056 17.0994 2.87248C17.3139 3.08691 17.488 3.34424 17.6065 3.62931C17.7201 3.9043 17.7831 4.20451 17.7831 4.51986C17.7831 4.70654 17.7604 4.88819 17.7175 5.06478C17.6797 5.22372 17.6242 5.37761 17.5535 5.52393C17.7453 5.53654 17.932 5.54915 18.1136 5.56429C18.3583 5.58195 18.6131 5.60466 18.8755 5.62988C19.2665 5.66773 19.655 5.71061 20.0461 5.76107C20.4371 5.809 20.8256 5.8645 21.2116 5.92505C22.087 6.06128 22.8918 6.22778 23.6183 6.42456C24.3499 6.62386 25.0084 6.85596 25.5836 7.1259C26.184 7.40593 26.6961 7.72884 27.1099 8.09717C27.5286 8.46802 27.8465 8.88428 28.061 9.35099C28.0786 9.38631 28.0937 9.42416 28.1038 9.46704C28.1139 9.50741 28.119 9.54777 28.119 9.59066C28.119 9.73446 28.061 9.86312 27.9676 9.95646L27.96 9.96403C27.8667 10.0523 27.7406 10.1078 27.6018 10.1078H3.30233C3.29224 10.1078 3.28467 10.1078 3.2771 10.1053C3.2443 10.1028 3.20898 10.0977 3.17871 10.0902C3.14339 10.0801 3.10807 10.0675 3.07275 10.0498C3.06519 10.0473 3.05762 10.0422 3.05005 10.0372C2.93148 9.96908 2.84823 9.8606 2.81038 9.73698C2.77254 9.61336 2.78011 9.47713 2.84318 9.35604C2.8457 9.34847 2.85075 9.3409 2.85579 9.33333C3.10303 8.87671 3.43856 8.45793 3.86743 8.07951C4.29378 7.70614 4.81348 7.36808 5.42651 7.07039ZM20.5885 4.54509C20.6894 4.646 20.7398 4.77971 20.7398 4.91089C20.7398 5.0446 20.6894 5.17578 20.5885 5.27669C20.4875 5.37761 20.3538 5.42806 20.2227 5.42806C20.0889 5.42806 19.9578 5.37761 19.8568 5.27669C19.4053 4.82512 19.2665 4.43156 19.2892 4.05314C19.3119 3.68229 19.4936 3.34676 19.6853 2.986C19.9376 2.51172 20.2277 1.97184 19.7736 1.18221L19.7686 1.17212C19.7004 1.05103 19.6878 0.912273 19.7231 0.788656C19.7585 0.659994 19.8417 0.546469 19.9653 0.475831C20.0889 0.405193 20.2302 0.390056 20.3564 0.425375C20.485 0.460694 20.5986 0.543946 20.6692 0.667563C21.04 1.30835 21.1157 1.83561 21.0501 2.29224C20.9845 2.74634 20.7852 3.12223 20.5986 3.47038C20.3967 3.85384 20.2227 4.17928 20.5885 4.54509ZM24.4988 4.54509C24.5997 4.646 24.6501 4.77971 24.6501 4.91089C24.6501 5.0446 24.5997 5.17578 24.4988 5.27669C24.3979 5.37761 24.2642 5.42806 24.133 5.42806C23.9993 5.42806 23.8681 5.37761 23.7672 5.27669C23.3156 4.82512 23.1768 4.43156 23.1995 4.05314C23.2222 3.68229 23.4039 3.34676 23.5956 2.986C23.7243 2.74382 23.8656 2.48397 23.911 2.19385C23.9564 1.90625 23.9135 1.57829 23.6839 1.18221C23.6133 1.05859 23.5981 0.917318 23.6335 0.791179C23.6688 0.662517 23.752 0.548992 23.8756 0.478354C23.9993 0.407716 24.1405 0.392579 24.2667 0.427898C24.3928 0.463217 24.5089 0.546469 24.5795 0.670085C24.9504 1.31087 25.026 1.83814 24.9604 2.29476C24.8949 2.74886 24.6956 3.12476 24.5089 3.4729C24.4029 3.6722 24.302 3.85889 24.2818 4.03296C24.2616 4.19694 24.3146 4.36092 24.4988 4.54509ZM10.3838 5.27922C10.2829 5.38013 10.1492 5.43058 10.018 5.43058C9.88428 5.43058 9.75309 5.38013 9.65218 5.27922C9.55127 5.17831 9.50081 5.0446 9.50081 4.91341C9.50081 4.77971 9.55127 4.64852 9.65218 4.54761C10.0205 4.17928 9.84644 3.85384 9.64209 3.47542C9.4554 3.12476 9.25358 2.75138 9.19051 2.29476C9.12492 1.83561 9.2006 1.30835 9.57145 0.667563C9.64209 0.543946 9.75814 0.460694 9.8868 0.427898C10.0155 0.395102 10.1542 0.407716 10.2778 0.480876C10.4014 0.551514 10.4847 0.667563 10.5175 0.796225C10.5503 0.924887 10.5377 1.06364 10.4645 1.18726C10.0104 1.97437 10.3005 2.51677 10.5528 2.98853C10.7471 3.34928 10.9262 3.68482 10.9489 4.05566C10.9741 4.43408 10.8328 4.82764 10.3838 5.27922Z" fill="#D4C17F"/>
</svg>
