<svg width="36" height="31" viewBox="0 0 36 31" fill="none" xmlns="http://www.w3.org/2000/svg">
<path fill-rule="evenodd" clip-rule="evenodd" d="M29.7996 2.17852e-06C29.7735 2.17852e-06 29.7472 2.17852e-06 29.7209 2.17852e-06H6.20038C5.08371 -4.55141e-05 4.12896 -9.31813e-05 3.36593 0.0912858C2.55668 0.188213 1.77456 0.40585 1.13226 0.978082C0.478397 1.56041 0.218693 2.28696 0.104664 3.04287C-0.000152588 3.73726 -0.000152588 4.6007 1.14441e-05 5.58573V6.82023C1.14441e-05 7.59684 1.14441e-05 8.26823 0.0609627 8.82808C0.126766 9.43051 0.270432 9.99573 0.61536 10.5384C0.957615 11.0769 1.41858 11.4678 1.95004 11.8183C2.45052 12.1484 3.09015 12.4902 3.8423 12.8923L8.76911 15.5254C9.89063 16.1249 10.2811 16.3408 10.5418 16.5555C11.1406 17.0491 11.4835 17.5967 11.6446 18.2828C11.7134 18.5761 11.7209 18.9454 11.7209 20.0673V24.4107C11.7208 25.8433 11.7208 27.0598 11.876 27.9949C12.0413 28.9893 12.4245 29.9428 13.4292 30.5395C14.4111 31.1226 15.4926 31.069 16.5436 30.832C17.5558 30.6039 18.8032 30.1408 20.3 29.5851L20.4455 29.5313C21.1466 29.271 21.7606 29.0432 22.2466 28.8049C22.7689 28.5488 23.254 28.2302 23.6251 27.7344C24.0004 27.2329 24.1509 26.6951 24.218 26.1456C24.2792 25.6443 24.2791 25.0427 24.2791 24.3719V20.0673C24.2791 18.9454 24.2865 18.5761 24.3554 18.2828C24.5165 17.5967 24.8594 17.0491 25.4581 16.5555C25.7188 16.3408 26.1093 16.1249 27.2308 15.5254L32.1577 12.8923C32.9099 12.4902 33.5494 12.1484 34.05 11.8183C34.5814 11.4678 35.0424 11.0769 35.3847 10.5384C35.7296 9.99573 35.8732 9.43051 35.939 8.82808C36.0001 8.26821 36 7.59684 36 6.82023L36 5.66693C36 5.63976 36 5.61269 36 5.58571C36.0001 4.60068 36.0001 3.73726 35.8953 3.04287C35.7813 2.28696 35.5215 1.56041 34.8678 0.978082C34.2254 0.40585 33.4432 0.188213 32.634 0.0912858C31.871 -9.31813e-05 30.9163 -4.55141e-05 29.7996 2.17852e-06ZM32.3197 2.45717C32.8784 2.52408 33.056 2.63408 33.1493 2.71714C33.2312 2.7901 33.3393 2.91855 33.4091 3.38114C33.4853 3.88622 33.4884 4.57639 33.4884 5.66693V6.76357C33.4884 7.61284 33.4868 8.15985 33.4407 8.58235C33.3978 8.97583 33.3241 9.16504 33.2343 9.30627C33.1419 9.45159 32.9886 9.61483 32.6171 9.85979C32.2258 10.1179 31.6911 10.4051 30.8764 10.8405L25.9988 13.4474C25.9531 13.4719 25.9081 13.4959 25.8638 13.5196C24.9283 14.0192 24.2912 14.3596 23.8116 14.7548C22.8214 15.571 22.1861 16.5624 21.904 17.7639C21.7668 18.3478 21.7671 19.0025 21.7674 19.9268C21.7674 19.9729 21.7674 20.0198 21.7674 20.0673V24.3111C21.7674 25.0618 21.7655 25.5235 21.7231 25.871C21.6847 26.1853 21.6242 26.291 21.5777 26.3532C21.527 26.4209 21.4266 26.5231 21.0943 26.6861C20.7387 26.8605 20.2486 27.0439 19.4748 27.331C17.8657 27.9283 16.7834 28.327 15.9632 28.5119C15.1619 28.6927 14.8978 28.599 14.7612 28.5178C14.6473 28.4502 14.4715 28.313 14.357 27.6235C14.2362 26.8964 14.2326 25.8707 14.2326 24.3111V20.0673C14.2326 20.0198 14.2326 19.9729 14.2326 19.9268C14.2329 19.0025 14.2332 18.3478 14.0961 17.7639C13.814 16.5624 13.1787 15.571 12.1884 14.7548C11.7089 14.3596 11.0718 14.0192 10.1363 13.5196C10.0919 13.4959 10.0469 13.4719 10.0011 13.4474L5.12356 10.8405C4.30879 10.4051 3.77415 10.1179 3.38284 9.85979C3.01145 9.61483 2.85807 9.45159 2.76565 9.30627C2.6759 9.16504 2.60223 8.97583 2.55936 8.58235C2.51315 8.15985 2.51164 7.61284 2.51164 6.76357V5.66693C2.51164 4.57639 2.51466 3.88622 2.59084 3.38114C2.66066 2.91855 2.76883 2.7901 2.85071 2.71714C2.94397 2.63408 3.12163 2.52408 3.68022 2.45717C4.26727 2.38687 5.06178 2.38463 6.27908 2.38463H29.7209C30.9383 2.38463 31.7327 2.38687 32.3197 2.45717Z" fill="#F8D985"/>
</svg>
