<svg width="31" height="29" viewBox="0 0 31 29" fill="none" xmlns="http://www.w3.org/2000/svg">
<path fill-rule="evenodd" clip-rule="evenodd" d="M28.3259 27.8304C28.3259 28.0852 28.119 28.2946 27.8617 28.2946H3.00973C2.75493 28.2946 2.54554 28.0877 2.54554 27.8304V13.7381C2.02585 13.9374 1.544 13.94 1.14035 13.8062C0.825002 13.7003 0.560109 13.5111 0.365855 13.2638C0.1716 13.0191 0.0479836 12.7189 0.0101418 12.391C-0.0453595 11.8788 0.10853 11.2986 0.54245 10.7562C0.565155 10.7284 0.590383 10.7032 0.618133 10.6805L15.1494 0.823987C15.3134 0.67262 15.5656 0.657483 15.7473 0.798759L30.3038 10.6351C30.3239 10.6502 30.3416 10.6679 30.3593 10.6856C30.9445 11.3163 31.0909 12.0151 30.9496 12.6079C30.879 12.898 30.7402 13.1629 30.5485 13.3774C30.3567 13.5943 30.112 13.7608 29.832 13.8617C29.388 14.0232 28.8632 14.0156 28.3284 13.7634C28.3259 17.6989 28.3259 23.8974 28.3259 27.8304ZM11.6225 18.4179C12.2103 18.4179 12.6846 18.8947 12.6846 19.48C12.6846 20.0678 12.2078 20.5421 11.6225 20.5421C11.0372 20.5421 10.5604 20.0678 10.5604 19.48C10.5604 18.8947 11.0372 18.4179 11.6225 18.4179ZM14.6701 16.8765H14.9829V16.9471L14.7811 17.1565H14.9904V17.2322H14.6524V17.1565L14.8517 16.9496H14.6726L14.6701 16.8765ZM12.5383 17.5374H13.2169V17.6939L12.7805 18.1505H13.2321V18.317H12.4929V18.1555L12.9268 17.704H12.5383V17.5374ZM13.7593 17.265H14.2437V17.376L13.9334 17.7014H14.2563V17.82H13.7291V17.7065L14.0368 17.3861H13.7593V17.265ZM8.51445 18.4557H9.86415V22.4342H22.8161V24.6189H22.6774V25.7138H21.3277V24.6189H9.86415V25.7138H8.51445V24.6189H8.18397V22.4367H8.51445V18.4557ZM13.2068 18.761H21.3453C22.0517 18.761 22.632 19.3387 22.632 20.0476V22.0179C18.8856 22.0179 14.1176 22.0179 10.3712 22.0179V21.1274C10.3712 20.9886 10.4848 20.8751 10.6235 20.8751H13.2043V18.761H13.2068ZM11.4358 9.87322H19.5617V15.3451H11.4358V9.87322ZM14.1958 11.3591C14.4304 11.3591 14.6221 11.5509 14.6221 11.7855C14.6221 12.0201 14.4304 12.2118 14.1958 12.2118C13.9612 12.2118 13.7694 12.0201 13.7694 11.7855C13.7719 11.5484 13.9612 11.3591 14.1958 11.3591ZM15.992 13.1882L16.9507 11.7149L17.8563 14.0055H13.4162V13.7205L13.7719 13.7028L14.1277 12.8325L14.4102 13.4556H14.9425L15.4042 12.2648L15.992 13.1882ZM11.9253 10.4358H19.0774V14.7826H11.9253V10.4358ZM27.1604 27.1266V13.221C27.1604 13.1907 27.1629 13.1604 27.1679 13.1327L15.5455 5.39023L3.69846 13.1352C3.70855 13.173 3.71359 13.2134 3.71359 13.2538V27.1266C11.5292 27.1266 19.3423 27.1266 27.1604 27.1266Z" fill="#D4C17F"/>
</svg>
