<svg width="27" height="24" viewBox="0 0 27 24" fill="none" xmlns="http://www.w3.org/2000/svg">
<path d="M5.63818 4.26639C5.55029 4.35103 5.43384 4.39335 5.31958 4.39335C5.20312 4.39335 5.08887 4.35103 5.00098 4.26639C4.91309 4.18176 4.86914 4.06962 4.86914 3.95959C4.86914 3.84745 4.91309 3.73742 5.00098 3.65279C5.16138 3.49833 5.20752 3.35868 5.18994 3.22538C5.17236 3.07938 5.08667 2.9228 4.99219 2.75565C4.82959 2.46154 4.65381 2.14839 4.59888 1.76753C4.54175 1.38244 4.60767 0.94022 4.93066 0.402785L4.93286 0.394322C4.99438 0.294875 5.09326 0.227167 5.20093 0.197545C5.31079 0.167922 5.43384 0.180617 5.5415 0.239862C5.64917 0.299107 5.72168 0.396438 5.75244 0.502232C5.7832 0.608026 5.77002 0.726516 5.7085 0.830194C5.51074 1.16239 5.47339 1.43745 5.51074 1.67866C5.55029 1.92199 5.67114 2.13993 5.7854 2.34305C5.95459 2.64562 6.1106 2.92704 6.13037 3.23807C6.15234 3.55757 6.03149 3.88765 5.63818 4.26639ZM3.09595 9.23026H23.8623C23.9458 9.23026 24.0271 9.24719 24.1018 9.27681C24.1743 9.30643 24.238 9.34663 24.2952 9.39741C24.2996 9.39953 24.304 9.40376 24.3083 9.40799C24.4226 9.51802 24.4929 9.66825 24.4929 9.8354V11.1832H26.5496C26.6748 11.1832 26.7869 11.2319 26.8682 11.3102C26.9495 11.3885 27 11.4985 27 11.617C27 11.7376 26.9495 11.8455 26.8682 11.9238L26.8616 11.9301C26.7803 12.0042 26.6704 12.0507 26.5496 12.0507H24.4929V20.9586C24.4929 21.3437 24.4116 21.7119 24.2666 22.0483C24.115 22.3974 23.8953 22.7127 23.6228 22.9751C23.3503 23.2374 23.0229 23.4511 22.6604 23.595C22.311 23.7347 21.9287 23.8129 21.5288 23.8129H5.43384C5.03394 23.8129 4.65161 23.7347 4.30225 23.595C3.9397 23.449 3.6123 23.2374 3.33984 22.9729C3.06738 22.7106 2.84546 22.3953 2.69385 22.0462C2.54883 21.7098 2.46753 21.3416 2.46753 20.9565V12.055H0.452637C0.327393 12.055 0.215332 12.0063 0.134033 11.928C0.0505371 11.8476 0 11.7397 0 11.6191C0 11.4985 0.0505371 11.3906 0.131836 11.3123C0.213135 11.234 0.327393 11.1853 0.450439 11.1853H2.46753V9.83752C2.46753 9.75712 2.48511 9.67883 2.51587 9.60689C2.54883 9.53283 2.59497 9.46512 2.6521 9.41011C2.76636 9.30008 2.92456 9.23026 3.09595 9.23026ZM23.5876 10.102H3.3728V20.9607C3.3728 21.2294 3.42773 21.4834 3.52881 21.7182C3.63428 21.9615 3.78809 22.1795 3.97925 22.3636C4.17041 22.5476 4.39673 22.6958 4.64941 22.7973C4.89111 22.8946 5.15698 22.9475 5.43603 22.9475H21.531C21.8079 22.9475 22.0737 22.8946 22.3154 22.7973C22.5659 22.6958 22.7944 22.5476 22.9856 22.3657C23.1768 22.1816 23.3306 21.9637 23.4338 21.7203C23.5349 21.4876 23.5898 21.2316 23.5898 20.965V10.102H23.5876ZM4.40771 11.5768C4.40771 11.4562 4.45825 11.3483 4.53955 11.27C4.62085 11.1917 4.73511 11.143 4.85815 11.143C4.9834 11.143 5.09546 11.1917 5.17676 11.27C5.25806 11.3483 5.30859 11.4583 5.30859 11.5768V17.3087C5.30859 17.4293 5.25806 17.5372 5.17676 17.6155C5.09546 17.6938 4.9812 17.7425 4.85815 17.7425C4.73291 17.7425 4.62085 17.6938 4.53955 17.6155L4.53296 17.6092C4.45605 17.5309 4.40771 17.4251 4.40771 17.3087V11.5768ZM8.85498 5.56555C8.07715 5.67346 7.37842 5.81099 6.75879 5.97391C6.13696 6.13895 5.58984 6.3315 5.11963 6.55155C4.79004 6.70601 4.4978 6.87316 4.24512 7.05301C4.06714 7.17785 3.90894 7.31115 3.76831 7.44868H23.1987C23.0691 7.3175 22.9197 7.19266 22.7527 7.07417C22.5088 6.90279 22.2253 6.74409 21.9045 6.60021C21.4475 6.39286 20.9158 6.21512 20.3203 6.05855C19.7205 5.90197 19.0569 5.7729 18.3406 5.66499C18.0154 5.61633 17.6858 5.57189 17.354 5.53169H17.3496C17.0222 5.49149 16.6926 5.45764 16.3586 5.4259C16.0312 5.39628 15.6995 5.36877 15.3611 5.34761C15.0271 5.32645 14.6953 5.30952 14.3657 5.29683C14.2405 5.2926 14.1306 5.2397 14.0515 5.1593C13.9724 5.07889 13.9263 4.96887 13.9307 4.84826V4.84615C13.9329 4.77632 13.9526 4.71073 13.9856 4.6536C14.0186 4.59435 14.0669 4.54569 14.124 4.50549C14.1943 4.45471 14.2603 4.39758 14.3174 4.33198C14.3745 4.26851 14.4229 4.19657 14.4624 4.12251C14.502 4.04846 14.5327 3.97017 14.5525 3.88342C14.5723 3.8009 14.5833 3.71626 14.5833 3.6274C14.5833 3.47928 14.5525 3.33963 14.4976 3.21268C14.4404 3.0815 14.3569 2.96089 14.2537 2.86144C14.1504 2.762 14.0251 2.67948 13.8889 2.62658C13.7571 2.57368 13.6121 2.54406 13.4583 2.54406C13.3044 2.54406 13.1594 2.57368 13.0276 2.62658C12.8892 2.68159 12.7661 2.762 12.6628 2.86356C12.5596 2.96301 12.4739 3.08361 12.4189 3.2148C12.364 3.34175 12.3333 3.4814 12.3333 3.62951C12.3333 3.71626 12.3442 3.8009 12.3618 3.8813C12.3816 3.96382 12.4124 4.04422 12.4497 4.11616C12.4893 4.19022 12.5376 4.26216 12.5925 4.32564C12.6497 4.39123 12.7134 4.45047 12.7837 4.49914C12.8826 4.57108 12.9441 4.67476 12.9595 4.78478C12.9749 4.89481 12.9485 5.01118 12.8738 5.1064C12.8298 5.16141 12.7771 5.20373 12.7178 5.23335C12.6606 5.26086 12.5969 5.27779 12.5332 5.2799H12.52H12.5112C12.2102 5.28625 11.9026 5.29683 11.5928 5.31164C11.2874 5.32645 10.9775 5.34549 10.6589 5.37088C10.3513 5.39416 10.0459 5.42167 9.74707 5.45552C9.44604 5.48726 9.14941 5.52323 8.85498 5.56555ZM4.72632 5.76867C5.24048 5.52958 5.83154 5.3201 6.50171 5.14237C7.16748 4.96463 7.91016 4.81864 8.72754 4.70438C9.03296 4.66206 9.34058 4.62398 9.65039 4.59012C9.9646 4.55627 10.2744 4.52665 10.5864 4.50337C10.7776 4.48856 10.9775 4.47586 11.1819 4.46317C11.3225 4.45471 11.4675 4.44836 11.6125 4.44201C11.5576 4.32564 11.5137 4.20292 11.4829 4.07808C11.4478 3.9342 11.428 3.78397 11.428 3.62951C11.428 3.36503 11.4829 3.11323 11.5818 2.8826C11.6851 2.64351 11.8367 2.42769 12.0234 2.24784C12.2102 2.06799 12.4343 1.92199 12.6826 1.82466C12.9221 1.72945 13.1836 1.67655 13.4583 1.67655C13.7329 1.67655 13.9944 1.72945 14.2339 1.82466C14.4822 1.92411 14.7063 2.0701 14.8931 2.24784C15.0798 2.42769 15.2314 2.64351 15.3347 2.8826C15.4336 3.11323 15.4885 3.36503 15.4885 3.62951C15.4885 3.78609 15.4688 3.93843 15.4314 4.08654C15.3984 4.21984 15.3501 4.34891 15.2886 4.47163C15.4556 4.48221 15.6182 4.49279 15.7764 4.50549C15.9895 4.5203 16.2114 4.53934 16.4399 4.5605C16.7805 4.59224 17.1189 4.62821 17.4595 4.67053C17.8 4.71073 18.1384 4.75728 18.4746 4.80806C19.2371 4.92232 19.938 5.06197 20.5708 5.227C21.208 5.39416 21.7815 5.58882 22.2825 5.81522C22.8054 6.05008 23.2515 6.32092 23.6118 6.62984C23.9766 6.94087 24.2534 7.28999 24.4402 7.68143C24.4556 7.71105 24.4687 7.74279 24.4775 7.77876C24.4863 7.81262 24.4907 7.84647 24.4907 7.88244C24.4907 8.00305 24.4402 8.11096 24.3589 8.18924L24.3523 8.19559C24.271 8.26965 24.1611 8.3162 24.0403 8.3162H2.87622C2.86743 8.3162 2.86084 8.3162 2.85425 8.31408C2.82568 8.31196 2.79492 8.30773 2.76855 8.30139C2.73779 8.29292 2.70703 8.28234 2.67627 8.26753C2.66968 8.26542 2.66309 8.26118 2.65649 8.25695C2.55322 8.19982 2.48071 8.10884 2.44775 8.00516C2.41479 7.90148 2.42139 7.78723 2.47632 7.68566C2.47852 7.67932 2.48291 7.67297 2.4873 7.66662C2.70264 7.28364 2.99487 6.93241 3.36841 6.61503C3.73975 6.30187 4.19238 6.01835 4.72632 5.76867ZM17.9319 3.65067C18.0198 3.73531 18.0637 3.84745 18.0637 3.95747C18.0637 4.06962 18.0198 4.17964 17.9319 4.26428C17.844 4.34891 17.7275 4.39123 17.6133 4.39123C17.4968 4.39123 17.3826 4.34891 17.2947 4.26428C16.9014 3.88553 16.7805 3.55545 16.8003 3.23807C16.8201 2.92704 16.9783 2.64562 17.1453 2.34305C17.365 1.94527 17.6177 1.49247 17.2222 0.830194L17.2178 0.821731C17.1584 0.720168 17.1475 0.603795 17.1782 0.500116C17.209 0.392206 17.2815 0.296991 17.3892 0.237746C17.4968 0.178502 17.6199 0.165806 17.7297 0.195429C17.8418 0.225051 17.9407 0.294875 18.0022 0.398554C18.3252 0.935989 18.3911 1.37821 18.334 1.76118C18.2769 2.14204 18.1033 2.45731 17.9407 2.7493C17.7649 3.07092 17.6133 3.34387 17.9319 3.65067ZM21.3376 3.65067C21.4255 3.73531 21.4695 3.84745 21.4695 3.95747C21.4695 4.06962 21.4255 4.17964 21.3376 4.26428C21.2498 4.34891 21.1333 4.39123 21.019 4.39123C20.9026 4.39123 20.7883 4.34891 20.7004 4.26428C20.3071 3.88553 20.1863 3.55545 20.2061 3.23807C20.2258 2.92704 20.384 2.64562 20.551 2.34305C20.6631 2.13993 20.7861 1.92199 20.8257 1.67866C20.8652 1.43745 20.8279 1.16239 20.6279 0.830194C20.5664 0.726516 20.5532 0.608026 20.584 0.502232C20.6147 0.394322 20.6873 0.299107 20.7949 0.239862C20.9026 0.180617 21.0256 0.167922 21.1355 0.197545C21.2454 0.227167 21.3464 0.296991 21.408 0.40067C21.731 0.938104 21.7969 1.38032 21.7397 1.7633C21.6826 2.14416 21.509 2.45943 21.3464 2.75142C21.2541 2.91857 21.1663 3.07515 21.1487 3.22114C21.1311 3.35868 21.1772 3.49621 21.3376 3.65067ZM9.04394 4.26639C8.95605 4.35103 8.8396 4.39335 8.72534 4.39335C8.60889 4.39335 8.49463 4.35103 8.40674 4.26639C8.31885 4.18176 8.2749 4.06962 8.2749 3.95959C8.2749 3.84745 8.31885 3.73742 8.40674 3.65279C8.72754 3.34387 8.57593 3.07092 8.39795 2.75353C8.23535 2.45943 8.05957 2.14628 8.00464 1.7633C7.94751 1.37821 8.01343 0.935989 8.33642 0.398554C8.39795 0.294875 8.49902 0.225051 8.61108 0.197545C8.72314 0.170038 8.84399 0.180617 8.95166 0.241978C9.05933 0.301223 9.13183 0.398554 9.1604 0.506464C9.18896 0.614374 9.17798 0.730748 9.11426 0.834426C8.71875 1.49458 8.97144 1.9495 9.19116 2.34517C9.36035 2.64774 9.51636 2.92915 9.53613 3.24019C9.55811 3.55757 9.43506 3.88765 9.04394 4.26639Z" fill="#D4C17F"/>
</svg>
