<svg width="31" height="31" viewBox="0 0 31 31" fill="none" xmlns="http://www.w3.org/2000/svg">
<g clip-path="url(#clip0_1_197)">
<path d="M30.333 0.151518C30.1309 -0.0505059 29.8044 -0.0505059 29.6024 0.151518L27.687 2.06686H15.6571L0.533734 17.3147C0.189623 17.6588 0 18.1171 0 18.6038C0 19.0906 0.189623 19.5489 0.533734 19.893L11.1082 30.4674C11.4631 30.8224 11.9287 31.0001 12.3952 31.0001C12.8639 31.0001 13.3325 30.8208 13.6916 30.4623L28.4176 15.3384V2.79746L30.333 0.882109C30.535 0.680085 30.535 0.353541 30.333 0.151518ZM27.3842 14.9189L12.9558 29.7368C12.6479 30.0448 12.1467 30.0448 11.8388 29.7368L1.26433 19.1624C0.956382 18.8544 0.956382 18.3533 1.26588 18.0438L16.088 3.10023H26.6537L24.1565 5.59737C23.7478 5.32662 23.2596 5.16697 22.7341 5.16697C21.3096 5.16697 20.1507 6.32589 20.1507 7.75039C20.1507 9.17488 21.3096 10.3338 22.7341 10.3338C24.1586 10.3338 25.3175 9.17488 25.3175 7.75039C25.3175 7.22492 25.1579 6.73665 24.8871 6.32796L27.3842 3.83082V14.9189ZM24.2841 7.75039C24.2841 8.60498 23.5887 9.30044 22.7341 9.30044C21.8795 9.30044 21.184 8.60498 21.184 7.75039C21.184 6.89579 21.8795 6.20034 22.7341 6.20034C22.9728 6.20034 23.196 6.25924 23.398 6.35586L22.3688 7.38509C22.1668 7.58712 22.1668 7.91366 22.3688 8.11568C22.4695 8.21644 22.6018 8.26707 22.7341 8.26707C22.8664 8.26707 22.9986 8.21644 23.0994 8.11568L24.1286 7.08645C24.2258 7.28847 24.2841 7.51168 24.2841 7.75039Z" fill="#D4C17F"/>
<path d="M21.5699 16.1625L16.09 21.643C15.888 21.845 15.888 22.1715 16.09 22.3735C16.1907 22.4743 16.323 22.5249 16.4553 22.5249C16.5876 22.5249 16.7198 22.4743 16.8206 22.3735L22.3005 16.8931C22.5026 16.6911 22.5026 16.3645 22.3005 16.1625C22.0985 15.9605 21.772 15.961 21.5699 16.1625Z" fill="#D4C17F"/>
<path d="M23.3954 14.333C23.3019 14.4306 23.2456 14.5649 23.2456 14.6998C23.2456 14.8393 23.3019 14.9731 23.3954 15.0666C23.4931 15.1643 23.6274 15.2165 23.7623 15.2165C23.8966 15.2165 24.031 15.1643 24.1235 15.0666C24.2216 14.9731 24.279 14.8393 24.279 14.6998C24.279 14.5649 24.2221 14.4306 24.1235 14.333C23.9323 14.1418 23.5918 14.1418 23.3954 14.333Z" fill="#D4C17F"/>
<path d="M19.0125 9.95144C19.2145 9.74942 19.2145 9.42288 19.0125 9.22085C18.8105 9.01883 18.4839 9.01883 18.2819 9.22085L12.8014 14.7013C12.5994 14.9033 12.5994 15.2299 12.8014 15.4319C12.9022 15.5327 13.0344 15.5833 13.1667 15.5833C13.299 15.5833 13.4313 15.5327 13.532 15.4319L19.0125 9.95144Z" fill="#D4C17F"/>
<path d="M17.1859 16.1625C17.2867 16.2633 17.419 16.3139 17.5512 16.3139C17.6835 16.3139 17.8158 16.2633 17.9165 16.1625L21.57 12.5091C21.772 12.307 21.772 11.9805 21.57 11.7785C21.368 11.5764 21.0414 11.5764 20.8394 11.7785L17.1859 15.4319C16.9839 15.634 16.9839 15.961 17.1859 16.1625Z" fill="#D4C17F"/>
<path d="M14.2631 18.3543L13.5325 19.0849C13.3305 19.2869 13.3305 19.6134 13.5325 19.8154C13.6333 19.9162 13.7655 19.9668 13.8978 19.9668C14.0301 19.9668 14.1623 19.9162 14.2631 19.8154L14.9937 19.0849C15.1957 18.8828 15.1957 18.5563 14.9937 18.3543C14.7917 18.1522 14.4646 18.1528 14.2631 18.3543Z" fill="#D4C17F"/>
<path d="M8.78256 14.8522C8.91483 14.8522 9.0471 14.8016 9.14786 14.7008L14.6278 9.22085C14.8298 9.01883 14.8298 8.69229 14.6278 8.49026C14.4258 8.28824 14.0992 8.28824 13.8972 8.49026L8.41726 13.9702C8.21524 14.1722 8.21524 14.4988 8.41726 14.7008C8.51802 14.8016 8.65029 14.8522 8.78256 14.8522Z" fill="#D4C17F"/>
<path d="M16.0896 7.54373C16.2239 7.54373 16.3588 7.49206 16.4564 7.39389C16.5499 7.29623 16.6062 7.16706 16.6062 7.02704C16.6062 6.8927 16.5499 6.75837 16.4512 6.6602C16.2601 6.46902 15.9191 6.46902 15.7227 6.66536C15.6297 6.75888 15.5729 6.8927 15.5729 7.02704C15.5729 7.16138 15.6297 7.29623 15.7227 7.39389C15.8209 7.49206 15.9552 7.54373 16.0896 7.54373Z" fill="#D4C17F"/>
<path d="M11.3412 16.162C11.2431 16.2596 11.1914 16.3888 11.1914 16.5288C11.1914 16.6683 11.2431 16.7975 11.3412 16.89C11.4342 16.9882 11.5681 17.0455 11.7081 17.0455C11.8424 17.0455 11.9768 16.9887 12.0693 16.8957C12.1674 16.7975 12.2248 16.6632 12.2248 16.5288C12.2248 16.394 12.1679 16.2596 12.0693 16.162C11.8786 15.9708 11.5319 15.9708 11.3412 16.162Z" fill="#D4C17F"/>
<path d="M16.4564 17.6237C16.5499 17.5307 16.6062 17.3969 16.6062 17.2569C16.6062 17.1225 16.5499 16.9882 16.4564 16.89C16.2601 16.6988 15.9191 16.6988 15.7227 16.89C15.6297 16.9882 15.5729 17.1225 15.5729 17.2569C15.5729 17.3969 15.6297 17.5261 15.7227 17.6237C15.8209 17.7219 15.9552 17.7736 16.0896 17.7736C16.2239 17.7736 16.3582 17.7224 16.4564 17.6237Z" fill="#D4C17F"/>
<path d="M12.4789 24.6083C12.7967 24.1283 12.9486 23.5537 12.8995 22.9693C12.8592 22.4816 12.6241 22.0408 12.2382 21.7277C11.8429 21.4079 11.3242 21.2612 10.8235 21.3242L9.37574 21.505L7.38858 19.5179C7.96416 19.2446 8.67254 19.3401 9.1484 19.816C9.35042 20.018 9.67697 20.018 9.87899 19.816C10.081 19.614 10.081 19.2874 9.87899 19.0854C8.99701 18.2034 7.63038 18.0944 6.6275 18.7573L6.225 18.3548C6.02298 18.1528 5.69644 18.1528 5.49441 18.3548C5.29239 18.5568 5.29239 18.8834 5.49441 19.0854L5.89794 19.4889C5.5807 19.9684 5.42879 20.5435 5.47788 21.1279C5.51818 21.6151 5.75327 22.0563 6.13872 22.3689C6.53398 22.6888 7.04963 22.836 7.55392 22.7735L9.00166 22.5927L10.9837 24.5747C10.4096 24.8335 9.68679 24.739 9.229 24.2812C9.02698 24.0792 8.70044 24.0792 8.49841 24.2812C8.29639 24.4827 8.29639 24.8098 8.49841 25.0118C8.98565 25.4995 9.6346 25.7687 10.3249 25.7687C10.8395 25.7687 11.3304 25.6184 11.7494 25.3404L12.0708 25.6618C12.1715 25.7625 12.3038 25.8132 12.4361 25.8132C12.5683 25.8132 12.7006 25.7625 12.8014 25.6618C13.0034 25.4597 13.0034 25.1332 12.8014 24.9312L12.4789 24.6083ZM7.42578 21.7484C7.19947 21.7763 6.96645 21.7112 6.78974 21.5665C6.62492 21.4322 6.52416 21.2462 6.50711 21.0416C6.48438 20.7646 6.54328 20.4944 6.65953 20.25L8.07628 21.6668L7.42578 21.7484ZM10.9516 22.3493C11.1754 22.3188 11.4094 22.3865 11.5866 22.5307C11.752 22.665 11.8527 22.851 11.8698 23.0556C11.8925 23.3326 11.8336 23.6028 11.7168 23.8472L10.3006 22.4309L10.9516 22.3493Z" fill="#D4C17F"/>
</g>
<defs>
<clipPath id="clip0_1_197">
<rect width="31" height="31" fill="white"/>
</clipPath>
</defs>
</svg>
