<svg width="31" height="17" viewBox="0 0 31 17" fill="none" xmlns="http://www.w3.org/2000/svg">
<path d="M1.41674 11.2194H5.90036L6.50568 16.1141H7.07015V11.2194V9.58775H5.69857H1.55926H1.52611L0.989271 0.885986H0V9.58775V10.1316V11.2194V16.1141H0.989271L1.41674 11.2194Z" fill="#D4C17F"/>
<path d="M1.90351 9.04389H6.79822C6.94831 9.04389 7.07014 8.92207 7.07014 8.77198C7.07014 8.62188 6.94831 8.50006 6.79822 8.50006H1.90351C1.75342 8.50006 1.63159 8.62188 1.63159 8.77198C1.63159 8.92207 1.75342 9.04389 1.90351 9.04389Z" fill="#D4C17F"/>
<path d="M29.338 9.58775H29.3048H25.1655H23.386V11.2194V16.1141H24.3584L24.9637 11.2194H29.4473L29.8747 16.1141H31V11.2194V10.1316V9.58775V0.885986H29.8747L29.338 9.58775Z" fill="#D4C17F"/>
<path d="M23.386 8.77192C23.386 8.92206 23.5078 9.04383 23.6579 9.04383H28.5526C28.7028 9.04383 28.8245 8.92201 28.8245 8.77192C28.8245 8.62182 28.7027 8.5 28.5526 8.5H23.6579C23.5078 8.5 23.386 8.62182 23.386 8.77192Z" fill="#D4C17F"/>
<path d="M4.83 4.69301H9.2456V16.114H10.0864L10.7396 6.86845H19.7714L20.4246 16.114H21.2105V4.69301H26.1699C26.4348 4.69301 26.6491 4.4787 26.6491 4.21384V4.08445C26.6491 3.81959 26.4348 3.60529 26.1699 3.60529H4.83C4.56513 3.60529 4.35083 3.81959 4.35083 4.08445V4.21384C4.35083 4.4787 4.56513 4.69301 4.83 4.69301ZM19.6175 4.69301L19.6943 5.78073H10.8162L10.8929 4.69301H19.6175Z" fill="#D4C17F"/>
</svg>
