<svg width="27" height="27" viewBox="0 0 27 27" fill="none" xmlns="http://www.w3.org/2000/svg">
<g clip-path="url(#clip0_6_246)">
<path d="M1.23393 15.8684H5.13903L5.66623 20.1316H6.15788V15.8684V14.4474H4.96327H1.35807H1.32919L0.861623 6.86841H0V14.4474V14.9211V15.8684V20.1316H0.861623L1.23393 15.8684Z" fill="#D4C17F"/>
<path d="M1.65797 13.9737H5.92111C6.05183 13.9737 6.15794 13.8676 6.15794 13.7368C6.15794 13.6061 6.05183 13.5 5.92111 13.5H1.65797C1.52725 13.5 1.42114 13.6061 1.42114 13.7368C1.42114 13.8676 1.52725 13.9737 1.65797 13.9737Z" fill="#D4C17F"/>
<path d="M25.5524 14.4474H25.5235H21.9183H20.3684V15.8684V20.1316H21.2153L21.7426 15.8684H25.6476L26.0199 20.1316H26.9999V15.8684V14.9211V14.4474V6.86841H26.0199L25.5524 14.4474Z" fill="#D4C17F"/>
<path d="M20.3684 13.7368C20.3684 13.8676 20.4745 13.9737 20.6052 13.9737H24.8684C24.9991 13.9737 25.1052 13.8676 25.1052 13.7368C25.1052 13.6061 24.9991 13.5 24.8684 13.5H20.6052C20.4745 13.5 20.3684 13.6061 20.3684 13.7368Z" fill="#D4C17F"/>
<path d="M4.20689 10.1842H8.05274V20.1315H8.78507L9.35394 12.0789H17.2204L17.7893 20.1315H18.4738V10.1842H22.7933C23.0239 10.1842 23.2106 9.99754 23.2106 9.76685V9.65415C23.2106 9.42347 23.0239 9.23682 22.7933 9.23682H4.20689C3.9762 9.23682 3.78955 9.42347 3.78955 9.65415V9.76685C3.78955 9.99754 3.9762 10.1842 4.20689 10.1842ZM17.0864 10.1842L17.1532 11.1316H9.42071L9.48749 10.1842H17.0864Z" fill="#D4C17F"/>
</g>
<defs>
<clipPath id="clip0_6_246">
<rect width="27" height="27" fill="white"/>
</clipPath>
</defs>
</svg>
