<svg width="27" height="27" viewBox="0 0 27 27" fill="none" xmlns="http://www.w3.org/2000/svg">
<path d="M9.28125 10.125C13.0092 10.125 16.0312 8.61396 16.0312 6.75C16.0312 4.88604 13.0092 3.375 9.28125 3.375C5.55333 3.375 2.53125 4.88604 2.53125 6.75C2.53125 8.61396 5.55333 10.125 9.28125 10.125Z" stroke="#D4C17F" stroke-width="2" stroke-miterlimit="10" stroke-linecap="round" stroke-linejoin="round"/>
<path d="M2.53125 6.75V20.25C2.53125 22.1063 5.56875 23.625 9.28125 23.625C12.9938 23.625 16.0312 22.1063 16.0312 20.25V6.75" stroke="#D4C17F" stroke-width="2" stroke-miterlimit="10" stroke-linecap="round" stroke-linejoin="round"/>
<path d="M8.4375 6.75H10.125" stroke="#D4C17F" stroke-width="2" stroke-miterlimit="10" stroke-linecap="round" stroke-linejoin="round"/>
<path d="M9.28125 3.375H24.4688L22.7812 5.0625L24.4688 6.75L22.7812 8.4375L24.4688 10.125L22.7812 11.8125L24.4688 13.5L22.7812 15.1875L24.4688 16.875L22.7812 18.5625L24.4688 20.25H16.0312" stroke="#D4C17F" stroke-width="2" stroke-miterlimit="10" stroke-linecap="round" stroke-linejoin="round"/>
<path d="M5.90625 11.8125V10.125" stroke="#D4C17F" stroke-width="2" stroke-miterlimit="10" stroke-linecap="round" stroke-linejoin="round"/>
<path d="M5.90625 16.875V15.1875" stroke="#D4C17F" stroke-width="2" stroke-miterlimit="10" stroke-linecap="round" stroke-linejoin="round"/>
<path d="M5.90625 21.9375V20.25" stroke="#D4C17F" stroke-width="2" stroke-miterlimit="10" stroke-linecap="round" stroke-linejoin="round"/>
</svg>
