<svg width="31" height="31" viewBox="0 0 31 31" fill="none" xmlns="http://www.w3.org/2000/svg">
<path d="M10.6562 11.625C14.9365 11.625 18.4062 9.8901 18.4062 7.75C18.4062 5.6099 14.9365 3.875 10.6562 3.875C6.37604 3.875 2.90625 5.6099 2.90625 7.75C2.90625 9.8901 6.37604 11.625 10.6562 11.625Z" stroke="#D4C17F" stroke-width="2" stroke-miterlimit="10" stroke-linecap="round" stroke-linejoin="round"/>
<path d="M2.90625 7.75V23.25C2.90625 25.3813 6.39375 27.125 10.6562 27.125C14.9188 27.125 18.4062 25.3813 18.4062 23.25V7.75" stroke="#D4C17F" stroke-width="2" stroke-miterlimit="10" stroke-linecap="round" stroke-linejoin="round"/>
<path d="M9.6875 7.75H11.625" stroke="#D4C17F" stroke-width="2" stroke-miterlimit="10" stroke-linecap="round" stroke-linejoin="round"/>
<path d="M10.6562 3.875H28.0938L26.1562 5.8125L28.0938 7.75L26.1562 9.6875L28.0938 11.625L26.1562 13.5625L28.0938 15.5L26.1562 17.4375L28.0938 19.375L26.1562 21.3125L28.0938 23.25H18.4062" stroke="#D4C17F" stroke-width="2" stroke-miterlimit="10" stroke-linecap="round" stroke-linejoin="round"/>
<path d="M6.78125 13.5625V11.625" stroke="#D4C17F" stroke-width="2" stroke-miterlimit="10" stroke-linecap="round" stroke-linejoin="round"/>
<path d="M6.78125 19.375V17.4375" stroke="#D4C17F" stroke-width="2" stroke-miterlimit="10" stroke-linecap="round" stroke-linejoin="round"/>
<path d="M6.78125 25.1875V23.25" stroke="#D4C17F" stroke-width="2" stroke-miterlimit="10" stroke-linecap="round" stroke-linejoin="round"/>
</svg>
